<?xml version="1.0" encoding="UTF-8"?>
<svg xmlns="http://www.w3.org/2000/svg" xmlns:xlink="http://www.w3.org/1999/xlink" viewBox="0 0 384 384" width="384px" height="384px">
<g id="surface183496725">
<path style=" stroke:none;fill-rule:nonzero;fill:rgb(100%,100%,100%);fill-opacity:1;" d="M 176 48 L 176 232.96875 C 166.535156 227.417969 155.691406 224 144 224 C 108.84375 224 80 252.84375 80 288 C 80 323.15625 108.84375 352 144 352 C 179.15625 352 208 323.15625 208 288 L 208 144 L 304 144 L 304 48 Z M 208 80 L 272 80 L 272 112 L 208 112 Z M 144 256 C 161.863281 256 176 270.136719 176 288 C 176 305.863281 161.863281 320 144 320 C 126.136719 320 112 305.863281 112 288 C 112 270.136719 126.136719 256 144 256 Z M 144 256 "/>
</g>
</svg>
